<!-- icon666.com - MILLIONS OF FREE VECTOR ICONS --><svg id="Capa_1" enable-background="new 0 0 512 512" viewBox="0 0 512 512" xmlns="http://www.w3.org/2000/svg"><g><path d="m256 0c-140.7 0-256 115.3-256 256s115.3 256 256 256 256-115.3 256-256-115.3-256-256-256zm75 331h-150v-150h150z" fill="#ffbe40"></path><path d="m512 256c0 140.7-115.3 256-256 256v-181h75v-150h-75v-181c140.7 0 256 115.3 256 256z" fill="#ff9f40"></path><path d="m256 61c-107.401 0-195 87.599-195 195 0 107.399 87.599 195 195 195s195-87.601 195-195c0-107.401-87.599-195-195-195zm60 255h-120v-120h120z" fill="#ffdf40"></path><path d="m451 256c0 107.399-87.599 195-195 195v-135h60v-120h-60v-135c107.401 0 195 87.599 195 195z" fill="#ffbe40"></path><g><path d="m241 361h30v30h-30z" fill="#ffbe40"></path></g><g><path d="m241 121h30v30h-30z" fill="#ffbe40"></path></g><g><path d="m361 241h30v30h-30z" fill="#ff9f40"></path></g><g><path d="m121 241h30v30h-30z" fill="#ffbe40"></path></g><path d="m256 121h15v30h-15z" fill="#ff9f40"></path><path d="m256 361h15v30h-15z" fill="#ff9f40"></path><path d="m181 181v150h150v-150zm120 120h-90v-90h90z" fill="#ffbe40"></path><path d="m331 181v150h-75v-30h45v-90h-45v-30z" fill="#ff9f40"></path></g></svg>